Coordinates
version=1
nRows=12
nColumns=63
inDegrees=yes

Units are S.I. units (second, meters, Newtons, ...)
If the header above contains a line with 'inDegrees', this indicates whether rotational values are in degrees (yes) or radians (no).

endheader
time	pelvis_tilt	pelvis_list	pelvis_rotation	pelvis_tx	pelvis_ty	pelvis_tz	hip_flexion_r	hip_adduction_r	hip_rotation_r	knee_angle_r	knee_angle_r_beta	ankle_angle_r	subtalar_angle_r	mtp_angle_r	hip_flexion_l	hip_adduction_l	hip_rotation_l	knee_angle_l	knee_angle_l_beta	ankle_angle_l	subtalar_angle_l	mtp_angle_l	L5_S1_Flex_Ext	L5_S1_Lat_Bending	L5_S1_axial_rotation	L4_L5_Flex_Ext	L4_L5_Lat_Bending	L4_L5_axial_rotation	L3_L4_Flex_Ext	L3_L4_Lat_Bending	L3_L4_axial_rotation	L2_L3_Flex_Ext	L2_L3_Lat_Bending	L2_L3_axial_rotation	L1_L2_Flex_Ext	L1_L2_Lat_Bending	L1_L2_axial_rotation	L1_T12_Flex_Ext	L1_T12_Lat_Bending	L1_T12_axial_rotation	Abs_r3	Abs_r2	Abs_r1	Abs_t1	Abs_t2	neck_flexion	neck_bending	neck_rotation	arm_flex_r	arm_add_r	arm_rot_r	elbow_flex_r	pro_sup_r	wrist_flex_r	wrist_dev_r	arm_flex_l	arm_add_l	arm_rot_l	elbow_flex_l	pro_sup_l	wrist_flex_l	wrist_dev_l
0.711864	-2.217021	-3.489595	71.626576	0.211909	0.430373	0.874144	3.314774	-2.143937	-9.228924	15.506999	0.270648	22.219867	10.000054	0.000000	-4.859679	1.831871	-5.524789	2.123483	0.037062	20.552780	3.235588	0.000000	-0.236408	-0.165307	0.046966	-0.439034	-0.219858	0.049901	-0.388395	-0.401928	0.049901	-0.270191	-0.401928	0.041095	-0.219529	-0.337094	0.038160	-0.135084	-0.256061	0.035225	-1.688640	-1.869987	0.261211	0.000000	0.000000	19.858562	1.667812	4.958712	-0.441847	-14.719998	41.268875	47.745848	63.455312	1.399018	1.298442	14.052065	-13.153798	79.408276	45.079530	57.376203	6.271283	-6.558233
0.728814	-2.124295	-3.290600	71.772119	0.212112	0.430766	0.872731	3.306851	-2.191148	-9.868383	16.153115	0.281925	22.257272	10.051614	0.000000	-5.231513	1.798219	-5.213865	1.955706	0.034134	20.438236	3.036319	0.000000	-0.236910	-0.178315	-0.090733	-0.439966	-0.237158	-0.096404	-0.389220	-0.433554	-0.096404	-0.270765	-0.433554	-0.079392	-0.219995	-0.363619	-0.073721	-0.135370	-0.276209	-0.068050	-1.692226	-2.017130	-0.504632	0.000000	0.000000	19.376459	2.148287	6.129549	-1.255173	-15.168564	40.179151	48.079549	63.610060	-0.278618	0.861033	13.319893	-12.903255	78.354728	44.344777	61.685554	6.092463	-6.121679
0.745763	-2.040299	-3.103929	71.940885	0.212359	0.431301	0.871356	3.343444	-2.280667	-10.743618	16.861913	0.294296	22.371805	10.337407	0.000000	-5.553657	1.752057	-4.992521	1.839823	0.032111	20.358820	2.991126	0.000000	-0.234982	-0.192883	-0.222792	-0.436386	-0.256534	-0.236716	-0.386053	-0.468975	-0.236716	-0.268561	-0.468975	-0.194943	-0.218205	-0.393326	-0.181018	-0.134269	-0.298775	-0.167094	-1.678456	-2.181927	-1.239102	0.000000	0.000000	18.850373	2.635185	7.194969	-2.169509	-15.655221	38.982584	48.563808	64.374066	-1.983837	0.388551	12.588839	-12.845730	77.014513	43.997610	66.076963	5.682081	-5.882402
0.762712	-1.957499	-2.928403	72.122627	0.212617	0.431994	0.870059	3.429924	-2.404822	-11.833505	17.645767	0.307977	22.550077	10.853577	0.000000	-5.826108	1.688240	-4.960601	1.777712	0.031027	20.319798	3.212362	0.000000	-0.232603	-0.208098	-0.342669	-0.431966	-0.276771	-0.364086	-0.382143	-0.505970	-0.364086	-0.265842	-0.505970	-0.299835	-0.215995	-0.424354	-0.278419	-0.132909	-0.322344	-0.257002	-1.661457	-2.354051	-1.905822	0.000000	0.000000	18.286756	3.113311	8.077352	-3.066715	-16.246260	38.025876	49.193438	65.156728	-3.770604	-0.319797	11.962284	-12.969992	75.737411	44.014266	69.972470	4.923857	-5.979213
0.779661	-1.895971	-2.771050	72.309065	0.212884	0.432821	0.868912	3.584293	-2.579168	-13.060094	18.509083	0.323044	22.765955	11.496868	0.000000	-6.029909	1.623546	-5.117933	1.774445	0.030970	20.315198	3.694448	0.000000	-0.230151	-0.225820	-0.451351	-0.427413	-0.300340	-0.479561	-0.378115	-0.549059	-0.479561	-0.263039	-0.549059	-0.394932	-0.213718	-0.460492	-0.366723	-0.131508	-0.349795	-0.338513	-1.643945	-2.554520	-2.510280	0.000000	0.000000	17.727385	3.563558	8.775222	-3.825653	-16.949552	37.470937	49.917051	66.036362	-5.524174	-1.224905	11.408473	-13.283271	74.429275	44.401856	73.433270	4.104383	-6.014538
0.796610	-1.852490	-2.646643	72.487138	0.213139	0.433738	0.867950	3.833854	-2.785921	-14.344986	19.466519	0.339755	22.995823	12.166858	0.000000	-6.161166	1.554371	-5.457555	1.806543	0.031530	20.335270	4.437310	0.000000	-0.227082	-0.244556	-0.541245	-0.421714	-0.325259	-0.575073	-0.373073	-0.594613	-0.575073	-0.259532	-0.594613	-0.473589	-0.210868	-0.498699	-0.439762	-0.129755	-0.378817	-0.405934	-1.622025	-2.766466	-3.010243	0.000000	0.000000	17.201000	3.948952	9.236460	-4.405152	-17.787597	37.392068	50.717406	66.910484	-7.155628	-2.317512	11.001175	-13.720128	73.369030	45.059840	76.310024	3.018749	-6.035681
0.813559	-1.831398	-2.551769	72.641337	0.213401	0.434711	0.867233	4.169157	-3.019612	-15.619600	20.484605	0.357524	23.230552	12.818890	0.000000	-6.222046	1.489196	-5.916958	1.872640	0.032684	20.364754	5.337101	0.000000	-0.225057	-0.264793	-0.605598	-0.417954	-0.352175	-0.643448	-0.369747	-0.643818	-0.643448	-0.257218	-0.643818	-0.529898	-0.208988	-0.539966	-0.492048	-0.128598	-0.410165	-0.454198	-1.607561	-2.995393	-3.368153	0.000000	0.000000	16.731563	4.237981	9.410831	-4.759831	-18.768314	37.860848	51.559079	67.571740	-8.565628	-3.478954	10.814094	-14.204536	72.770698	45.802112	78.586007	1.804003	-6.181774
0.830508	-1.839407	-2.494452	72.770565	0.213671	0.435685	0.866794	4.593255	-3.271413	-16.811227	21.538480	0.375917	23.477774	13.378224	0.000000	-6.210980	1.436446	-6.391966	1.953661	0.034098	20.380372	6.260269	0.000000	-0.223524	-0.286388	-0.647784	-0.415107	-0.380895	-0.688271	-0.367228	-0.696323	-0.688271	-0.255466	-0.696323	-0.566811	-0.207565	-0.584002	-0.526325	-0.127722	-0.443614	-0.485838	-1.596611	-3.239673	-3.602781	0.000000	0.000000	16.343366	4.434024	9.352737	-4.880061	-19.881993	38.891742	52.412117	67.893687	-9.650692	-4.566954	10.812001	-14.694892	72.534799	46.545029	80.776621	0.261390	-6.441952
0.847458	-1.875401	-2.471553	72.865046	0.213976	0.436623	0.866660	5.087011	-3.526614	-17.852800	22.584373	0.394172	23.740800	13.803749	0.000000	-6.138007	1.396497	-6.888895	2.039836	0.035602	20.383688	7.196923	0.000000	-0.223660	-0.309033	-0.665951	-0.415360	-0.411014	-0.707573	-0.367452	-0.751382	-0.707573	-0.255622	-0.751382	-0.582707	-0.207691	-0.630180	-0.541085	-0.127800	-0.478692	-0.499463	-1.597584	-3.495841	-3.703821	0.000000	0.000000	16.042768	4.529080	9.095044	-4.814963	-21.101653	40.355627	53.265925	67.761286	-10.260166	-5.417891	11.011089	-15.156046	72.687680	47.230618	83.036900	-1.680899	-6.902331
0.864407	-1.955164	-2.490575	72.919799	0.214344	0.437477	0.866856	5.647467	-3.791342	-18.741597	23.588149	0.411691	24.021528	14.104890	0.000000	-5.991261	1.379554	-7.430457	2.133214	0.037232	20.375967	8.176655	0.000000	-0.224112	-0.334284	-0.653386	-0.416199	-0.444598	-0.694223	-0.368194	-0.812779	-0.694223	-0.256138	-0.812779	-0.571713	-0.208111	-0.681673	-0.530876	-0.128058	-0.517806	-0.490040	-1.600812	-3.781491	-3.633937	0.000000	0.000000	15.825452	4.523470	8.662352	-4.685342	-22.379867	41.968909	54.154210	67.125071	-10.308023	-5.857789	11.441773	-15.591358	73.347037	47.870738	85.056993	-4.073400	-7.624622
0.881356	-2.075171	-2.550266	72.920412	0.214795	0.438224	0.867381	6.258072	-4.048270	-19.405910	24.516391	0.427892	24.295817	14.220138	0.000000	-5.781137	1.387968	-7.973382	2.222117	0.038783	20.351459	9.097825	0.000000	-0.225382	-0.361991	-0.603867	-0.418558	-0.481448	-0.641608	-0.370281	-0.880145	-0.641608	-0.257590	-0.880145	-0.528383	-0.209290	-0.738172	-0.490642	-0.128784	-0.560724	-0.452900	-1.609884	-4.094913	-3.358525	0.000000	0.000000	15.656165	4.375903	8.009747	-4.606084	-23.666276	43.546480	55.110452	66.058103	-9.786974	-5.899921	12.078302	-15.966982	74.411643	48.417306	87.183183	-6.801339	-8.582019
0.898305	-2.228403	-2.643002	72.884043	0.215303	0.438853	0.868215	6.893520	-4.283546	-19.841156	25.340386	0.442273	24.542030	14.129059	0.000000	-5.522215	1.418486	-8.526397	2.299237	0.040129	20.312297	9.989096	0.000000	-0.227987	-0.390575	-0.533409	-0.423395	-0.519465	-0.566747	-0.374560	-0.949644	-0.566747	-0.260566	-0.949644	-0.466733	-0.211709	-0.796461	-0.433395	-0.130272	-0.605001	-0.400057	-1.628489	-4.418262	-2.966662	0.000000	0.000000	15.521196	4.136784	7.357226	-4.511924	-25.026568	45.120390	56.180414	64.452746	-8.732562	-5.542980	12.848138	-16.353820	75.858178	48.920500	88.947508	-9.842396	-9.732468
